<svg xmlns="http://www.w3.org/2000/svg" viewBox="0 0 512 512" role="img" aria-labelledby="title desc">
  <title id="title">VPN App Icon</title>
  <desc id="desc">Shield icon with blue swirl and keyhole in the center.</desc>
  <defs>
    <linearGradient id="bg" x1="0" y1="0" x2="1" y2="1">
      <stop offset="0%" stop-color="#0b2f63"/>
      <stop offset="100%" stop-color="#03142c"/>
    </linearGradient>
    <linearGradient id="shield" x1="0" y1="0" x2="0" y2="1">
      <stop offset="0%" stop-color="#1a2d47"/>
      <stop offset="100%" stop-color="#0c1522"/>
    </linearGradient>
    <radialGradient id="core" cx="50%" cy="42%" r="60%">
      <stop offset="0%" stop-color="#74e9ff"/>
      <stop offset="100%" stop-color="#0ab1f6"/>
    </radialGradient>
    <filter id="shadow" x="-20%" y="-20%" width="140%" height="140%">
      <feDropShadow dx="0" dy="8" stdDeviation="9" flood-color="#000000" flood-opacity="0.35"/>
    </filter>
  </defs>

  <rect width="512" height="512" rx="108" fill="url(#bg)"/>

  <g opacity="0.36" stroke="#20b2ff" stroke-width="4" fill="none">
    <path d="M0 150H82l24-18h50"/>
    <path d="M0 190H64l20-16h40"/>
    <path d="M0 232H94l18-14h32"/>
    <path d="M0 274H84l18 13h42"/>
    <path d="M0 316H72l24 18h52"/>
    <path d="M512 150H430l-24-18h-50"/>
    <path d="M512 190H448l-20-16h-40"/>
    <path d="M512 232H418l-18-14h-32"/>
    <path d="M512 274H428l-18 13h-42"/>
    <path d="M512 316H440l-24 18h-52"/>
  </g>

  <g filter="url(#shadow)">
    <path d="M256 58c-55 29-113 37-162 40v133c0 108 76 190 162 223 86-33 162-115 162-223V98c-49-3-107-11-162-40z" fill="url(#shield)" stroke="#243b59" stroke-width="8"/>
    <path d="M256 89c-42 21-88 29-132 32v108c0 89 60 158 132 188 72-30 132-99 132-188V121c-44-3-90-11-132-32z" fill="none" stroke="#57b8ff" stroke-opacity="0.35" stroke-width="4"/>
  </g>

  <circle cx="256" cy="244" r="118" fill="url(#core)" stroke="#d8f7ff" stroke-opacity="0.5" stroke-width="6"/>

  <path d="M335 207c-16-22-44-38-75-42 22 10 41 27 53 47 12 20 16 44 10 67-5 23-19 43-38 56 31-8 58-29 72-59 14-31 8-68-22-69z" fill="#ffffff" opacity="0.96"/>
  <path d="M171 286c16 22 44 38 75 42-22-10-41-27-53-47-12-20-16-44-10-67 5-23 19-43 38-56-31 8-58 29-72 59-14 31-8 68 22 69z" fill="#ffffff" opacity="0.92"/>
  <path d="M227 193c23-14 56-19 82-10-20-1-39 5-54 16-15 11-27 27-31 45-5 18-2 36 8 52-20-14-33-34-37-57-4-23 5-47 32-46z" fill="#0fa8f2" opacity="0.9"/>
  <path d="M285 295c-23 14-56 19-82 10 20 1 39-5 54-16 15-11 27-27 31-45 5-18 2-36-8-52 20 14 33 34 37 57 4 23-5 47-32 46z" fill="#0fa8f2" opacity="0.9"/>

  <g fill="#ffffff">
    <circle cx="256" cy="244" r="18"/>
    <path d="M246 248h20v46h-20z"/>
  </g>
</svg>
