<svg xmlns="http://www.w3.org/2000/svg" viewBox="0 0 512 512">
  <rect width="512" height="512" rx="96" fill="#1b1b1b" />
  <path
    d="M256 84c-68 0-124 56-124 124v74c0 68 56 124 124 124s124-56 124-124v-74c0-68-56-124-124-124zm0 40c46 0 84 38 84 84v74c0 46-38 84-84 84s-84-38-84-84v-74c0-46 38-84 84-84z"
    fill="#ffffff"
  />
  <path
    d="M256 178c-16 0-28 12-28 28v28h-28c-16 0-28 12-28 28v84c0 16 12 28 28 28h112c16 0 28-12 28-28v-84c0-16-12-28-28-28h-28v-28c0-16-12-28-28-28z"
    fill="#d80032"
  />
</svg>
